<?xml version="1.0" standalone="no"?>
<!DOCTYPE svg PUBLIC "-//W3C//DTD SVG 20010904//EN"
 "http://www.w3.org/TR/2001/REC-SVG-20010904/DTD/svg10.dtd">
<svg version="1.0" xmlns="http://www.w3.org/2000/svg"
 width="512.000000pt" height="512.000000pt" viewBox="0 0 512.000000 512.000000"
 preserveAspectRatio="xMidYMid meet">
<metadata>
Created by potrace 1.16, written by Peter Selinger 2001-2019
</metadata>
<g transform="translate(0.000000,512.000000) scale(0.100000,-0.100000)"
fill="#000000" stroke="none">
<path d="M2365 4443 c-22 -2 -88 -12 -147 -23 -546 -102 -1023 -439 -1296
-915 -161 -281 -237 -550 -249 -875 -14 -416 87 -775 314 -1117 288 -434 731
-722 1258 -819 79 -15 148 -19 325 -18 205 0 236 3 351 27 615 130 1097 509
1357 1067 180 386 221 853 112 1270 -195 743 -822 1294 -1586 1394 -106 14
-330 19 -439 9z m709 -759 c14 -5 16 -32 16 -194 l0 -188 -133 -4 c-199 -5
-215 -20 -224 -208 -5 -99 -3 -124 8 -131 8 -5 87 -9 177 -9 l162 0 0 -30 c0
-48 -30 -353 -36 -362 -3 -4 -72 -8 -155 -8 l-149 0 -2 -562 -3 -563 -235 0
-235 0 -3 563 c-2 439 -5 562 -15 563 -6 1 -49 1 -94 -1 -133 -3 -123 -21
-123 206 l0 194 115 0 115 0 0 155 c0 231 27 336 112 439 36 44 104 92 160
113 58 21 499 43 542 27z"/>
</g>
</svg>
