<?xml version="1.0" standalone="no"?>
<!DOCTYPE svg PUBLIC "-//W3C//DTD SVG 20010904//EN"
 "http://www.w3.org/TR/2001/REC-SVG-20010904/DTD/svg10.dtd">
<svg version="1.0" xmlns="http://www.w3.org/2000/svg"
 width="225.000000pt" height="225.000000pt" viewBox="0 0 225.000000 225.000000"
 preserveAspectRatio="xMidYMid meet">
<metadata>
Created by potrace 1.16, written by Peter Selinger 2001-2019
</metadata>
<g transform="translate(0.000000,225.000000) scale(0.100000,-0.100000)"
fill="#000000" stroke="none">
<path d="M1470 2014 c-120 -25 -232 -100 -295 -199 -51 -80 -69 -147 -70 -255
l0 -94 -50 2 c-51 3 -157 23 -230 43 -228 62 -438 192 -604 372 l-45 48 -14
-26 c-83 -159 -43 -376 93 -509 30 -29 55 -56 55 -60 0 -11 -25 -7 -109 17
l-81 24 0 -38 c0 -48 42 -162 77 -208 59 -79 140 -139 226 -167 44 -15 48 -18
31 -27 -10 -6 -54 -11 -96 -12 -43 0 -78 -2 -78 -4 0 -2 14 -30 31 -62 62
-116 194 -208 322 -224 31 -4 57 -11 57 -15 0 -13 -100 -76 -170 -108 -131
-59 -234 -83 -368 -85 -114 -2 -114 -4 21 -67 178 -83 342 -120 545 -120 354
0 658 122 892 359 115 116 178 202 247 341 87 172 127 325 139 525 l7 120 44
35 c37 29 163 163 163 174 0 1 -30 -7 -67 -19 -38 -13 -93 -26 -123 -30 l-55
-7 68 62 c60 55 94 101 119 163 6 14 -1 13 -44 -9 -57 -29 -189 -74 -217 -74
-10 0 -24 7 -31 15 -21 25 -115 83 -161 100 -46 16 -185 27 -229 19z"/>
</g>
</svg>
